<?xml version="1.0" encoding="utf-8"?>
<!-- Generator: Adobe Illustrator 21.0.0, SVG Export Plug-In . SVG Version: 6.00 Build 0)  -->
<svg version="1.1" id="Laag_1" xmlns="http://www.w3.org/2000/svg" xmlns:xlink="http://www.w3.org/1999/xlink" x="0px" y="0px"
	 viewBox="0 0 355.8 118.2" style="enable-background:new 0 0 355.8 118.2;" xml:space="preserve">
<style type="text/css">
	.st0{fill:url(#SVGID_1_);}
	.st1{fill:url(#SVGID_2_);}
	.st2{fill:url(#SVGID_3_);}
	.st3{fill:url(#SVGID_4_);}
	.st4{fill:url(#SVGID_5_);}
	.st5{fill:url(#SVGID_6_);}
</style>
<g>
	<path d="M78.3,80c1-3.7,2.3-7.7,3.8-11.9l8.1-22.5h12.1v47h-8.6V68.8c0-3.5,0.1-7.5,0.4-12.2h-0.3c-0.4,1.3-0.9,2.8-1.4,4.5
		s-1.1,3.3-1.7,4.9L81,92.6h-5.6L65.7,66c-0.6-1.6-1.1-3.3-1.7-4.9c-0.5-1.7-1-3.2-1.4-4.5h-0.3c0.3,4.3,0.4,8.4,0.4,12.1v23.9h-8.6
		v-47h12L74.2,68c1.4,3.7,2.6,7.7,3.8,12H78.3z"/>
	<path d="M130.6,89h-0.1c-0.5,0.5-1,1-1.7,1.5s-1.4,1-2.2,1.5s-1.8,0.8-2.8,1.1c-1,0.3-2.1,0.4-3.3,0.4c-1.6,0-3.1-0.3-4.5-0.8
		s-2.6-1.2-3.6-2.2c-1-0.9-1.8-2.1-2.4-3.4c-0.6-1.3-0.9-2.9-0.9-4.5c0-1.8,0.3-3.5,1-4.9c0.7-1.5,1.6-2.7,2.8-3.7s2.6-1.8,4.3-2.3
		s3.5-0.8,5.5-0.8c1.5,0,2.8,0.1,4.1,0.3c1.2,0.2,2.3,0.4,3.3,0.7v-1.4c0-0.8-0.1-1.6-0.4-2.3c-0.3-0.7-0.7-1.4-1.3-2
		s-1.4-1-2.3-1.4c-1-0.3-2.1-0.5-3.5-0.5c-1.7,0-3.4,0.2-5.1,0.6s-3.5,0.9-5.5,1.7v-6.5c1.7-0.8,3.5-1.3,5.4-1.7
		c1.9-0.4,3.9-0.6,6-0.6c2.5,0,4.7,0.3,6.5,0.9s3.4,1.4,4.7,2.5s2.2,2.3,2.8,3.8c0.6,1.5,0.9,3,0.9,4.7v12.8c0,2.2,0,4.2,0.1,5.8
		c0,1.6,0.1,3.1,0.1,4.3H131L130.6,89z M129.9,78.1c-0.8-0.2-1.7-0.4-2.7-0.5c-1-0.2-2.1-0.2-3.1-0.2c-2,0-3.7,0.4-4.8,1.2
		c-1.2,0.8-1.8,2-1.8,3.7c0,0.8,0.1,1.4,0.4,2c0.3,0.6,0.6,1,1.1,1.4s1,0.7,1.6,0.8c0.6,0.2,1.3,0.3,1.9,0.3c0.8,0,1.6-0.1,2.4-0.3
		c0.8-0.2,1.4-0.5,2.1-0.8c0.6-0.3,1.2-0.7,1.7-1.1s0.9-0.8,1.3-1.2L129.9,78.1L129.9,78.1z"/>
	<path d="M161.7,80.8l-8.8,11.8h-9.6l13.5-17.4l-12.7-16.7h9.8l7.9,11.2l8.1-11.2h9.8l-13,16.7l13.4,17.4h-9.7L161.7,80.8z"/>
	<path d="M199.3,80.8l-8.8,11.8h-9.6l13.5-17.4l-12.7-16.7h9.8l7.9,11.2l8.1-11.2h9.8l-13,16.7l13.4,17.4H208L199.3,80.8z"/>
	<path d="M243.5,92.6c-0.9,0.3-2.1,0.5-3.4,0.7s-2.5,0.2-3.6,0.2c-2.9,0-5.2-0.5-7-1.4s-3.1-2.3-3.8-4c-0.5-1.2-0.8-2.9-0.8-5.1
		V65.4h-8.8l5.4-6.9h3.4V49h8.3v9.5h9.8l-5,6.9h-4.8V82c0,1.3,0.2,2.3,0.6,2.9c0.7,1.1,2.1,1.6,4.2,1.6c1,0,1.9-0.1,2.9-0.2
		c0.9-0.2,1.8-0.3,2.7-0.6v6.9H243.5z"/>
	<path d="M281.5,75.6c0,2.7-0.4,5.1-1.2,7.3c-0.8,2.2-1.9,4.1-3.4,5.7s-3.3,2.8-5.4,3.6s-4.5,1.3-7.1,1.3c-2.7,0-5.1-0.4-7.2-1.3
		c-2.1-0.9-3.9-2.1-5.4-3.6c-1.5-1.6-2.6-3.5-3.4-5.7s-1.2-4.6-1.2-7.3c0-2.7,0.4-5.1,1.2-7.3c0.8-2.2,1.9-4.1,3.4-5.7
		s3.3-2.8,5.4-3.6c2.1-0.9,4.5-1.3,7.1-1.3c2.7,0,5.1,0.4,7.2,1.3s3.9,2.1,5.4,3.6c1.5,1.6,2.6,3.5,3.4,5.7
		C281.1,70.5,281.5,73,281.5,75.6z M272.9,75.6c0-1.8-0.2-3.4-0.6-4.8s-1-2.5-1.8-3.5s-1.7-1.6-2.7-2.1c-1.1-0.5-2.2-0.7-3.4-0.7
		c-1.2,0-2.3,0.2-3.4,0.7c-1,0.5-1.9,1.2-2.7,2.1s-1.3,2.1-1.8,3.5c-0.4,1.4-0.6,3-0.6,4.8s0.2,3.4,0.6,4.8s1,2.5,1.8,3.5
		c0.8,0.9,1.7,1.6,2.7,2.1s2.2,0.7,3.4,0.7s2.4-0.2,3.4-0.7s1.9-1.2,2.7-2.1s1.3-2.1,1.8-3.5C272.7,79,272.9,77.4,272.9,75.6z"/>
	<path d="M295.5,63.3h0.1c0.5-0.7,1.1-1.4,1.9-2.1s1.6-1.3,2.6-1.8s2-0.9,3.2-1.2c1.2-0.3,2.4-0.5,3.7-0.5c1.2,0,2.4,0.1,3.6,0.4
		s2.2,0.7,3.2,1.3c1,0.6,1.8,1.4,2.5,2.3s1.3,2.1,1.7,3.4c0.2,0.7,0.4,1.5,0.5,2.4s0.1,1.8,0.1,3v22.1h-8.3V71.8
		c0-0.9,0-1.7-0.1-2.4c-0.1-0.7-0.2-1.2-0.4-1.7c-0.4-1.1-1.1-1.9-1.9-2.3c-0.9-0.5-1.9-0.7-3.1-0.7c-1.6,0-3.2,0.4-4.7,1.1
		c-1.5,0.8-2.8,1.9-4,3.3v23.4h-8.3V58.4h6.9L295.5,63.3z"/>
</g>
<g>
	
		<linearGradient id="SVGID_1_" gradientUnits="userSpaceOnUse" x1="497.3583" y1="-2476.8503" x2="551.4876" y2="-2476.8503" gradientTransform="matrix(-0.9975 -7.130000e-02 -7.130000e-02 0.9975 674.2169 2602.7134)">
		<stop  offset="0.177" style="stop-color:#F7941D"/>
		<stop  offset="0.7635" style="stop-color:#F36E26"/>
		<stop  offset="1" style="stop-color:#F15A29"/>
	</linearGradient>
	<path class="st0" d="M310.7,116.1c-4-0.3-7.9-1.1-11.5-2.5v0.1c4.8,2.6,9.9,4,15.4,4.4c21.2,1.5,39.6-14.5,41.1-35.7
		c0.2-3.4,0-6.9-0.6-10.2c0.1,1.7,0.1,3.5,0,5.3C353.4,100.5,333.5,117.7,310.7,116.1z"/>
	
		<linearGradient id="SVGID_2_" gradientUnits="userSpaceOnUse" x1="498.3691" y1="-2489.5134" x2="551.4773" y2="-2489.5134" gradientTransform="matrix(-0.9975 -7.130000e-02 -7.130000e-02 0.9975 674.2169 2602.7134)">
		<stop  offset="0" style="stop-color:#EF4129"/>
		<stop  offset="0.1855" style="stop-color:#F16026"/>
		<stop  offset="0.4003" style="stop-color:#F47823"/>
		<stop  offset="0.6111" style="stop-color:#F68820"/>
		<stop  offset="0.8139" style="stop-color:#F7911E"/>
		<stop  offset="1" style="stop-color:#F7941D"/>
	</linearGradient>
	<path class="st1" d="M337.8,47.2l-1.3,1.8c8.9,7.7,13.5,18.8,12.7,30.6c-1.5,20.3-19.1,35.6-39.4,34.2c-3.3-0.2-6.6-0.9-9.7-2
		l-0.8,1.9c3.6,1.3,7.4,2.2,11.5,2.5c22.9,1.6,42.7-15.6,44.4-38.4c0.1-1.8,0.1-3.6,0-5.3C353.1,62.1,346.9,52.9,337.8,47.2z"/>
</g>
<g>
	
		<linearGradient id="SVGID_3_" gradientUnits="userSpaceOnUse" x1="-95.5682" y1="115.7814" x2="-28.3838" y2="115.7814" gradientTransform="matrix(0.9975 7.130000e-02 7.130000e-02 -0.9975 88.4437 149.0663)">
		<stop  offset="0.2546" style="stop-color:#F7941D"/>
		<stop  offset="0.3244" style="stop-color:#F68A20"/>
		<stop  offset="0.49" style="stop-color:#F47725"/>
		<stop  offset="0.6575" style="stop-color:#F26827"/>
		<stop  offset="0.8267" style="stop-color:#F15E28"/>
		<stop  offset="1" style="stop-color:#F15A29"/>
	</linearGradient>
	<path class="st2" d="M56,2.6C61,3,65.7,4,70.2,5.7l0.1-0.1c-5.9-3.2-12.3-5-19.1-5.5C24.9-1.8,2,18.1,0.1,44.3
		c-0.3,4.3,0,8.5,0.8,12.6c-0.1-2.2-0.1-4.4,0-6.6C3,21.9,27.6,0.6,56,2.6z"/>
	
		<linearGradient id="SVGID_4_" gradientUnits="userSpaceOnUse" x1="-94.2777" y1="99.909" x2="-28.33" y2="99.909" gradientTransform="matrix(0.9975 7.130000e-02 7.130000e-02 -0.9975 88.4437 149.0663)">
		<stop  offset="0" style="stop-color:#EF4129"/>
		<stop  offset="0.1083" style="stop-color:#F15F27"/>
		<stop  offset="0.229" style="stop-color:#F47424"/>
		<stop  offset="0.3623" style="stop-color:#F58222"/>
		<stop  offset="0.5131" style="stop-color:#F78C1F"/>
		<stop  offset="0.6959" style="stop-color:#F7921E"/>
		<stop  offset="1" style="stop-color:#F7941D"/>
	</linearGradient>
	<path class="st3" d="M22.3,88.1l1.6-2.2C12.8,76.3,7.1,62.5,8.1,48C9.9,22.8,31.9,3.8,57,5.6c4.1,0.3,8.2,1.1,12.1,2.5l1.1-2.4
		C65.7,4,61,3,56,2.6C27.6,0.6,3,21.9,0.9,50.3c-0.2,2.2-0.2,4.4,0,6.6C3.4,69.6,11,80.9,22.3,88.1z"/>
</g>
<g>
	
		<linearGradient id="SVGID_5_" gradientUnits="userSpaceOnUse" x1="-72.7633" y1="106.7341" x2="-32.2336" y2="106.7341" gradientTransform="matrix(0.9975 7.130000e-02 7.130000e-02 -0.9975 88.4437 149.0663)">
		<stop  offset="0" style="stop-color:#D1D3D4"/>
		<stop  offset="0.2773" style="stop-color:#CFD0D2"/>
		<stop  offset="0.4897" style="stop-color:#C7C8CA"/>
		<stop  offset="0.6805" style="stop-color:#B9BBBD"/>
		<stop  offset="0.8577" style="stop-color:#A6A8AB"/>
		<stop  offset="1" style="stop-color:#939598"/>
	</linearGradient>
	<path class="st4" d="M56.4,22.8c3,0.2,5.9,0.9,8.6,1.9v-0.1c-3.6-1.9-7.5-3-11.5-3.3C37.6,20.2,23.8,32.1,22.7,48
		c-0.2,2.6,0,5.1,0.5,7.6c-0.1-1.3-0.1-2.6,0-4C24.4,34.5,39.3,21.6,56.4,22.8z"/>
	
		<linearGradient id="SVGID_6_" gradientUnits="userSpaceOnUse" x1="-72.0304" y1="97.1664" x2="-32.2561" y2="97.1664" gradientTransform="matrix(0.9975 7.130000e-02 7.130000e-02 -0.9975 88.4437 149.0663)">
		<stop  offset="0" style="stop-color:#939598"/>
		<stop  offset="5.060697e-02" style="stop-color:#A1A3A5"/>
		<stop  offset="0.134" style="stop-color:#B2B4B7"/>
		<stop  offset="0.2325" style="stop-color:#C0C2C4"/>
		<stop  offset="0.3544" style="stop-color:#CACCCD"/>
		<stop  offset="0.5254" style="stop-color:#D0D1D3"/>
		<stop  offset="1" style="stop-color:#D1D3D4"/>
	</linearGradient>
	<path class="st5" d="M36,74.4l1-1.3c-6.7-5.8-10.1-14.1-9.5-22.9C28.6,35,41.8,23.5,57,24.6c2.5,0.2,4.9,0.7,7.3,1.5l0.6-1.4
		c-2.7-1-5.6-1.6-8.6-1.9c-17.1-1.2-32,11.7-33.2,28.8c-0.1,1.3-0.1,2.7,0,4C24.7,63.2,29.2,70.1,36,74.4z"/>
</g>
</svg>
